<svg width="118" height="37" viewBox="0 0 118 37" fill="none" xmlns="http://www.w3.org/2000/svg">
<path fill-rule="evenodd" clip-rule="evenodd" d="M28.3323 12.8674C23.7035 12.9681 19.5732 15.0916 16.7902 18.3895C17.5255 19.6389 18.1275 20.9763 18.5767 22.382C20.9778 19.5243 24.4269 17.5769 28.3323 17.1312V21.4094C23.9914 22.1068 20.5205 25.406 19.5697 29.6569H15.2234C15.256 29.2457 15.2726 28.83 15.2726 28.4105C15.2726 26.4049 14.8929 24.4881 14.2014 22.7278C13.5098 24.4881 13.1301 26.4049 13.1301 28.4105C13.1301 28.5405 13.1317 28.6699 13.1349 28.7991C13.1367 28.8734 13.139 28.9473 13.1418 29.021C13.1447 29.093 13.1479 29.1648 13.1516 29.2366C13.159 29.377 13.1683 29.5172 13.1794 29.6569H8.75705C7.80901 25.4185 4.3555 22.1261 0.0324707 21.4157V17.1353C3.95207 17.5927 7.40951 19.5638 9.80507 22.4479C10.2564 21.018 10.8657 19.6585 11.6126 18.3895C8.82198 15.0825 4.67662 12.9565 0.0324707 12.8665V8.62645C5.62459 8.71145 10.6542 11.1167 14.2014 14.9216C17.7405 11.1253 22.7554 8.72249 28.3323 8.62728V12.8674Z" fill="#01387C"/>
<path d="M36.7721 29L45.9587 3.88042H50.3367L59.5233 29H55.3606L47.2865 6.14119H48.9731L40.8989 29H36.7721ZM41.0066 22.9354L42.119 19.7775H54.1764L55.2889 22.9354H41.0066ZM74.1008 36.8947V26.2727C73.5505 27.0861 72.773 27.8158 71.7682 28.4617C70.7635 29.1076 69.4836 29.4306 67.9285 29.4306C66.23 29.4306 64.7108 29.0239 63.3711 28.2105C62.0553 27.3971 61.0147 26.2847 60.2491 24.8732C59.5075 23.4378 59.1367 21.8349 59.1367 20.0646C59.1367 18.2703 59.5075 16.6794 60.2491 15.2919C61.0147 13.8804 62.0553 12.7799 63.3711 11.9905C64.7108 11.1771 66.2419 10.7704 67.9644 10.7704C69.352 10.7704 70.5721 11.0455 71.6247 11.5957C72.6773 12.146 73.5027 12.8995 74.1008 13.8565V11.201H78.0481V36.8947H74.1008ZM68.6462 25.9856C69.7228 25.9856 70.6678 25.7344 71.4812 25.2321C72.3185 24.7297 72.9644 24.0359 73.419 23.1507C73.8974 22.2656 74.1367 21.2488 74.1367 20.1005C74.1367 18.9282 73.8974 17.8995 73.419 17.0144C72.9644 16.1292 72.3185 15.4474 71.4812 14.9689C70.6678 14.4665 69.7228 14.2153 68.6462 14.2153C67.5936 14.2153 66.6486 14.4665 65.8113 14.9689C64.9979 15.4474 64.352 16.1292 63.8735 17.0144C63.3951 17.8995 63.1558 18.9163 63.1558 20.0646C63.1558 21.2368 63.3951 22.2656 63.8735 23.1507C64.352 24.0359 64.9979 24.7297 65.8113 25.2321C66.6486 25.7344 67.5936 25.9856 68.6462 25.9856ZM86.4295 29.4306C84.4439 29.4306 82.853 28.7608 81.6568 27.421C80.4607 26.0574 79.8626 24.0478 79.8626 21.3923V11.201H83.8099V20.9976C83.8099 22.6723 84.1329 23.9402 84.7788 24.8014C85.4487 25.6388 86.3817 26.0574 87.5779 26.0574C88.9654 26.0574 90.0539 25.567 90.8434 24.5861C91.6329 23.6053 92.0276 22.2057 92.0276 20.3876V11.201H95.975V29H92.0276V26.2368C91.5013 27.2416 90.7597 28.0311 89.8027 28.6053C88.8697 29.1555 87.7453 29.4306 86.4295 29.4306ZM103.909 29.4306C102.521 29.4306 101.337 29.1914 100.356 28.7129C99.3991 28.2105 98.6694 27.5526 98.167 26.7392C97.6886 25.9258 97.4493 25.0407 97.4493 24.0837C97.4493 22.1938 98.1312 20.7345 99.4948 19.7058C100.858 18.677 102.653 18.1627 104.878 18.1627C105.882 18.1627 106.779 18.2464 107.569 18.4139C108.358 18.5574 109.004 18.7129 109.507 18.8804V18.055C109.507 16.6675 109.124 15.6388 108.358 14.9689C107.617 14.2991 106.624 13.9641 105.38 13.9641C104.447 13.9641 103.622 14.1555 102.904 14.5383C102.186 14.9211 101.732 15.5909 101.54 16.5479H97.7364C97.88 15.256 98.3106 14.1914 99.0283 13.3541C99.7699 12.4928 100.691 11.8469 101.791 11.4163C102.892 10.9857 104.088 10.7704 105.38 10.7704C107.964 10.7704 109.949 11.4163 111.337 12.7082C112.748 14 113.454 15.7823 113.454 18.055V22.7201C113.454 23.6292 113.502 24.2871 113.598 24.6938C113.717 25.1005 113.897 25.3636 114.136 25.4832C114.399 25.5789 114.746 25.6268 115.177 25.6268H115.356V29H114.495C113.299 29 112.294 28.8206 111.48 28.4617C110.691 28.1029 110.141 27.3852 109.83 26.3086C109.256 27.1938 108.478 27.9354 107.497 28.5335C106.516 29.1316 105.32 29.4306 103.909 29.4306ZM104.698 26.3445C105.607 26.3445 106.385 26.1292 107.031 25.6986C107.677 25.244 108.191 24.6579 108.574 23.9402C108.98 23.1986 109.232 22.4091 109.327 21.5718C108.801 21.4282 108.179 21.2847 107.461 21.1412C106.744 20.9976 106.014 20.9258 105.272 20.9258C104.004 20.9258 103.047 21.189 102.401 21.7153C101.756 22.2416 101.433 22.9354 101.433 23.7967C101.433 24.5383 101.72 25.1483 102.294 25.6268C102.868 26.1053 103.669 26.3445 104.698 26.3445Z" fill="#01387C"/>
</svg>
